<?xml version="1.0" encoding="utf-8"?>
<svg class="bookmark-add" fill="currentColor" viewBox="0 0 60 60" xmlns="http://www.w3.org/2000/svg">
    <path fill="#fff" d="m8.55 9.37v44.63c0 .39.22.74.58.91.13.06.28.09.42.09.23 0 .46-.08.64-.23l15.02-12.5 15.02 12.5c.3.25.71.3 1.06.14s.58-.52.58-.91v-24.8c0-.55-.45-1-1-1s-1 .45-1 1v22.67l-14.02-11.67c-.37-.31-.91-.31-1.28 0l-14.02 11.67v-41.5h17c.55 0 1-.45 1-1s-.45-1-1-1h-18c-.55 0-1 .45-1 1z"></path>
    <path fill="#fff" d="m30.3 11.57c0 4.32 2.96 6.39 5.82 8.39 1.44 1.01 2.94 2.05 3.97 3.37.19.24.48.38.79.38s.6-.14.79-.38c1.03-1.32 2.52-2.36 3.97-3.37 2.86-2 5.82-4.06 5.82-8.39-.01-3.62-2.96-6.57-6.58-6.57-1.47 0-2.86.48-4.01 1.37-1.14-.89-2.53-1.37-4-1.37-3.63 0-6.57 2.95-6.57 6.57zm10.57-2.86c.27 0 .53-.11.72-.31.87-.9 2.04-1.4 3.29-1.4 2.52 0 4.57 2.05 4.57 4.57 0 3.28-2.3 4.89-4.97 6.75-1.25.87-2.53 1.76-3.61 2.88-1.08-1.11-2.36-2.01-3.61-2.88-2.66-1.86-4.97-3.47-4.97-6.75.01-2.52 2.06-4.57 4.58-4.57 1.25 0 2.42.5 3.29 1.4.18.2.44.31.71.31z"></path>
</svg>

