<svg viewBox="0 0 512 512" xmlns="http://www.w3.org/2000/svg">
    <path fill="white" clip-rule="evenodd" fill-rule="evenodd" d="m256 0c-141.385 0-256 114.615-256 256s114.615 256 256 256 256-114.615 256-256-114.615-256-256-256zm129.301 269.519-98.342 56.778-98.342 56.778c-4.963 2.866-10.646 2.866-15.609 0s-7.805-7.787-7.805-13.518v-113.557-113.555c0-5.731 2.841-10.652 7.805-13.518s10.646-2.866 15.609 0l98.342 56.778 98.342 56.778c4.964 2.866 7.805 7.786 7.805 13.518s-2.841 10.652-7.805 13.518z" />
</svg>